<svg xmlns="http://www.w3.org/2000/svg" xmlns:svg="http://www.w3.org/2000/svg" id="svg8" width="24" height="24" version="1.1" viewBox="0 0 6.35 6.35"><metadata id="metadata5"/><g id="layer1" transform="translate(471.60224,-51.657005)"><g id="g3735" transform="matrix(0.26458333,0,0,0.26458333,-471.86548,51.920238)"><path style="fill:#949494;fill-opacity:1;stroke:#949494;stroke-width:.65595609;stroke-linecap:butt;stroke-linejoin:miter;stroke-miterlimit:4;stroke-dasharray:none;stroke-opacity:1" id="path4983" d="M 2.6869721,2.7931307 21.370006,21.252951"/><path id="path3713" d="M 17.436421,21.426712 2.6364216,6.6267129 m 4.8,14.7999991 -4.8,-4.8 M 16.436421,0.4267129 l 7.2,7.2 m -17.1999994,-7.2 17.1999994,17.1999991" style="fill:none;stroke:#009688;stroke-width:.7937008;stroke-linecap:round;stroke-linejoin:round;stroke-miterlimit:4;stroke-dasharray:none"/><path id="path3715" d="M 14.752492,21.394569 2.6364216,9.2776059 M 23.48285,19.879391 4.1739216,0.66957 m 9.6232134,-0.086607 3.037826,2.9618941 6.823781,6.6997119" style="fill:none;stroke:#009688;stroke-width:.7937008;stroke-linecap:round;stroke-linejoin:round;stroke-miterlimit:4;stroke-dasharray:none"/><path style="fill:#949494;fill-opacity:1;stroke:#949494;stroke-width:.65595609;stroke-linecap:butt;stroke-linejoin:miter;stroke-miterlimit:4;stroke-dasharray:none;stroke-opacity:1" id="path4983-8" d="M 9.7429205,0.43681 23.684533,13.798665"/><path id="path3715-1" d="M 2.6374683,7.77313 9.7429205,0.43681 M 2.8040351,18.864878 20.992951,0.52555773 M 23.629234,9.7763932 12.204235,21.423716" style="fill:none;stroke:#009688;stroke-width:.7937008;stroke-linecap:round;stroke-linejoin:round;stroke-miterlimit:4;stroke-dasharray:none"/><path id="path3713-0" d="M 2.6042413,10.559661 12.242993,0.67821811 M 23.658129,12.52874 15.20813,21.405022 M 23.332474,1.1732923 3.4398186,20.95627" style="fill:none;stroke:#009688;stroke-width:.7937008;stroke-linecap:round;stroke-linejoin:round;stroke-miterlimit:4;stroke-dasharray:none"/><path id="path3721" d="M 4.6364216,0.4267129 H 21.636421 c 1.1,0 2,0.9 2,2 V 19.426712 c 0,1.1 -0.9,2 -2,2 H 4.6364216 c -1.1,0 -2,-0.9 -2,-2 V 2.4267129 c 0,-1.1 0.9,-2 2,-2 z" style="fill:none;stroke:#949494;stroke-width:.89461362;stroke-linecap:round;stroke-linejoin:round;stroke-miterlimit:4;stroke-dasharray:none"/><path style="fill:#949494;fill-opacity:1;stroke:#949494;stroke-width:.65595609;stroke-linecap:butt;stroke-linejoin:miter;stroke-miterlimit:4;stroke-dasharray:none;stroke-opacity:1" id="path4983-2" d="m 2.5685844,13.016265 8.7276766,8.61607"/></g></g></svg>